<!-- icon666.com - MILLIONS vector ICONS FREE --><svg id="Layer_2" viewBox="0 0 32 32" xmlns="http://www.w3.org/2000/svg" xmlns:xlink="http://www.w3.org/1999/xlink"><linearGradient id="SVGID_1_" gradientUnits="userSpaceOnUse" x1="0" x2="32" y1="15.969" y2="15.969"><stop offset="0" stop-color="#fff33b"></stop><stop offset=".014" stop-color="#fee72e"></stop><stop offset=".042" stop-color="#fed51b"></stop><stop offset=".07" stop-color="#fdca10"></stop><stop offset=".1" stop-color="#fdc70c"></stop><stop offset=".4" stop-color="#f3903f"></stop><stop offset=".8" stop-color="#ed683c"></stop><stop offset="1" stop-color="#e93e3a"></stop></linearGradient><path d="m29 31.938h-8.334c-1.654 0-3-1.346-3-3v-8.334c0-1.654 1.346-3 3-3h8.334c1.654 0 3 1.346 3 3v8.334c0 1.654-1.346 3-3 3zm-8.334-12.334c-.552 0-1 .448-1 1v8.334c0 .552.448 1 1 1h8.334c.552 0 1-.448 1-1v-8.334c0-.552-.448-1-1-1zm-9.333 12.334h-8.333c-1.654 0-3-1.346-3-3v-8.334c0-1.654 1.346-3 3-3h8.333c1.654 0 3 1.346 3 3v8.334c0 1.654-1.345 3-3 3zm-8.333-12.334c-.551 0-1 .448-1 1v8.334c0 .552.449 1 1 1h8.333c.551 0 1-.448 1-1v-8.334c0-.552-.449-1-1-1zm26-5.27h-8.334c-1.654 0-3-1.346-3-3v-8.334c0-1.654 1.346-3 3-3h8.334c1.654 0 3 1.346 3 3v8.334c0 1.654-1.346 3-3 3zm-8.334-12.334c-.552 0-1 .448-1 1v8.334c0 .552.448 1 1 1h8.334c.552 0 1-.448 1-1v-8.334c0-.552-.448-1-1-1zm-9.333 12.334h-8.333c-1.654 0-3-1.346-3-3v-8.334c0-1.654 1.346-3 3-3h8.333c1.654 0 3 1.346 3 3v8.334c0 1.654-1.345 3-3 3zm-8.333-12.334c-.551 0-1 .448-1 1v8.334c0 .552.449 1 1 1h8.333c.551 0 1-.448 1-1v-8.334c0-.552-.449-1-1-1z" fill="url(#SVGID_1_)"></path></svg>