<!-- icon666.com - MILLIONS vector ICONS FREE --><svg viewBox="0 0 32 32" xmlns="http://www.w3.org/2000/svg" xmlns:xlink="http://www.w3.org/1999/xlink"><linearGradient id="linear-gradient" gradientUnits="userSpaceOnUse" x1=".89" x2="26.65" y1="5.26" y2="31.19"><stop offset="0" stop-color="#f15a24"></stop><stop offset="1" stop-color="#fcee21"></stop></linearGradient><linearGradient id="linear-gradient-2" x1="-6.91" x2="18.84" xlink:href="#linear-gradient" y1="13.01" y2="38.94"></linearGradient><linearGradient id="linear-gradient-3" x1="5.39" x2="31.15" xlink:href="#linear-gradient" y1=".79" y2="26.72"></linearGradient><linearGradient id="linear-gradient-4" x1="-2.41" x2="23.34" xlink:href="#linear-gradient" y1="8.54" y2="34.47"></linearGradient><linearGradient id="linear-gradient-5" x1="9.89" x2="35.65" xlink:href="#linear-gradient" y1="-3.68" y2="22.25"></linearGradient><linearGradient id="linear-gradient-6" x1="2.09" x2="27.84" xlink:href="#linear-gradient" y1="4.07" y2="30"></linearGradient><g id="menu"><path d="m29 22h-17a1 1 0 0 0 -1 1v4a1 1 0 0 0 1 1h17a1 1 0 0 0 1-1v-4a1 1 0 0 0 -1-1zm-1 4h-15v-2h15z" fill="url(#linear-gradient)"></path><path d="m7 22h-4a1 1 0 0 0 -1 1v4a1 1 0 0 0 1 1h4a1 1 0 0 0 1-1v-4a1 1 0 0 0 -1-1zm-1 4h-2v-2h2z" fill="url(#linear-gradient-2)"></path><path d="m29 13h-17a1 1 0 0 0 -1 1v4a1 1 0 0 0 1 1h17a1 1 0 0 0 1-1v-4a1 1 0 0 0 -1-1zm-1 4h-15v-2h15z" fill="url(#linear-gradient-3)"></path><path d="m7 13h-4a1 1 0 0 0 -1 1v4a1 1 0 0 0 1 1h4a1 1 0 0 0 1-1v-4a1 1 0 0 0 -1-1zm-1 4h-2v-2h2z" fill="url(#linear-gradient-4)"></path><path d="m29 4h-17a1 1 0 0 0 -1 1v4a1 1 0 0 0 1 1h17a1 1 0 0 0 1-1v-4a1 1 0 0 0 -1-1zm-1 4h-15v-2h15z" fill="url(#linear-gradient-5)"></path><path d="m7 4h-4a1 1 0 0 0 -1 1v4a1 1 0 0 0 1 1h4a1 1 0 0 0 1-1v-4a1 1 0 0 0 -1-1zm-1 4h-2v-2h2z" fill="url(#linear-gradient-6)"></path></g></svg>